<?xml version="1.0" encoding="utf-8"?>
<!-- Generator: Adobe Illustrator 16.0.0, SVG Export Plug-In . SVG Version: 6.00 Build 0)  -->
<!DOCTYPE svg PUBLIC "-//W3C//DTD SVG 1.1//EN" "http://www.w3.org/Graphics/SVG/1.1/DTD/svg11.dtd">
<svg version="1.1" id="Capa_1" xmlns="http://www.w3.org/2000/svg" xmlns:xlink="http://www.w3.org/1999/xlink" x="0px" y="0px"
	 width="512px" height="512px" viewBox="0 0 512 512" enable-background="new 0 0 512 512" xml:space="preserve">
<g>
	<g>
		<path fill="#2D7BB9" d="M430.199,180.521c-24.961,3.019-70.548-2.222-53.37-28.436c8.014-4.667,15.993-8.365,19.608-8.365
			c7.171,0,12.984-5.813,12.984-12.984c0-7.173-5.813-12.987-12.984-12.987c-10.602,0-24.054,6.632-34.106,12.663
			c-8.279-4.097-13.302-16.45-13.302-16.45H44.436L21.648,92.737v19.058H0v70.351h156.864c23.767,0,61.054,13.201,64.434,48.771
			c-0.377,2.568-0.632,5.167-0.632,7.818c0,35.03,33.963,63.529,75.707,63.529c23.877,0,45.209-9.321,59.098-23.85
			c0.83-0.869,1.584-1.782,2.357-2.69l0.007,0.032c0,0,0.032-0.069,0.046-0.088C379.935,194.585,430.199,180.521,430.199,180.521z
			 M262.847,136.145h61.688c4.704,0,8.524,3.815,8.524,8.523c0,4.704-3.818,8.522-8.524,8.522h-61.688
			c-4.706,0-8.522-3.817-8.522-8.522C254.326,139.961,258.141,136.145,262.847,136.145z M262.847,164.554h61.688
			c4.704,0,8.524,3.817,8.524,8.522c0,4.707-3.818,8.523-8.524,8.523h-61.688c-4.706,0-8.522-3.815-8.522-8.523
			C254.326,168.371,258.141,164.554,262.847,164.554z M296.374,273.244c-25.307,0-46.69-15.802-46.69-34.509
			c0-18.707,21.384-34.515,46.69-34.515c6.267,0,12.291,0.975,17.814,2.718c-5.827,13.253-16.208,30.617-26.717,31.886
			c-5.339,0.646-9.145,5.504-8.497,10.845c0.597,4.94,4.799,8.568,9.659,8.568c0.392,0,0.786-0.021,1.186-0.069
			c20.812-2.525,34.775-26.762,41.566-41.942c7.217,6.102,11.682,13.995,11.682,22.511
			C343.066,257.442,321.683,273.244,296.374,273.244z"/>
		<path fill="#2D7BB9" d="M440.474,190.794c-57.356,17.859-68.182,88.21-68.182,88.21c22.899,2.51,27.059,83.338,27.059,83.338
			c-7.686,40.82,64.521,94.472,99.027,18.932C545.403,278.341,456.887,193.926,440.474,190.794z"/>
	</g>
</g>
</svg>
